<?xml version="1.0" standalone="no"?>
<!DOCTYPE svg PUBLIC "-//W3C//DTD SVG 20010904//EN"
 "http://www.w3.org/TR/2001/REC-SVG-20010904/DTD/svg10.dtd">
<svg version="1.0" xmlns="http://www.w3.org/2000/svg"
 width="60.000000pt" height="60.000000pt" viewBox="0 0 60.000000 60.000000"
 preserveAspectRatio="xMidYMid meet">

<g transform="translate(0.000000,60.000000) scale(0.100000,-0.100000)"
fill="#000000" stroke="none">
<path d="M377 526 c-53 -19 -106 -62 -124 -102 -15 -30 -21 -34 -54 -34 -50 0
-62 -28 -14 -32 l34 -3 -60 -139 c-33 -76 -57 -141 -55 -143 3 -3 17 -1 31 4
22 7 39 33 91 143 l64 135 47 5 c60 6 71 30 14 30 -23 0 -41 2 -41 5 0 12 43
90 54 98 6 4 30 6 53 3 28 -4 45 -1 53 9 28 34 -23 45 -93 21z"/>
</g>
</svg>
